:FULLY-SPECIFIED
:FORCE-ALL-JOINTS-BE-3DOF
:DEGREES
544
root 8.25341 13.9525 -3.52183 179.534 46.2535 177.376
lfemur -33.9708 -6.24074 -15.6263
ltibia 89.2998 -0 0
lfoot -38.8825 -12.1892 0.123233
ltoes -4.11779 0 0
rfemur -48.9749 -7.17571 -3.71766
rtibia 64.7114 -0 0
rfoot -9.55126 0.751609 0.106977
rtoes -39.1516 0 0
lowerback 13.1956 0.711707 1.87484
upperback 6.97286 2.12912 6.98764
thorax -0.268584 1.35689 6.00739
lowerneck -2.09872 -15.787 -5.97646
upperneck 8.64537 -21.4285 8.63106
head 4.51302 -10.3726 2.29386
lclavicle 8.71275e-14 9.02122e-15 1.59739e-30
lhumerus -45.669 -12.7251 104.355
lradius 55.8014 -0 0
lwrist 30.8967 0 0
lhand -24.1046 -2.96294 -0.0389164
lfingers 7.12502 -0 0
lthumb 2.37744 27.01 -0.0319815
rclavicle 8.71275e-14 9.02122e-15 1.59739e-30
rhumerus 6.4138 18.7843 -88.6019
rradius 135.215 -0 0
rwrist -45.6731 0 0
rhand -28.82 -22.8191 -0.0208452
rfingers 7.12502 -0 0
rthumb -2.17577 -52.8042 -0.0287604
545
root 8.29207 13.9287 -3.49426 179.421 46.2023 177.271
lfemur -33.9305 -6.17839 -15.3761
ltibia 89.3685 -0 0
lfoot -39.1762 -12.7519 0.0738228
ltoes -3.89005 0 0
rfemur -49.0514 -7.55589 -3.43474
rtibia 65.2718 -0 0
rfoot -10.1919 0.485717 0.05161
rtoes -39.1166 0 0
lowerback 13.1433 0.677267 1.81019
upperback 6.99553 2.07207 6.92937
thorax -0.209243 1.32726 5.99159
lowerneck -1.98296 -15.7342 -5.90491
upperneck 8.461 -21.3613 8.71992
head 4.43617 -10.3432 2.33409
lclavicle 9.212e-14 8.28039e-15 1.19715e-30
lhumerus -45.8066 -12.1276 103.868
lradius 55.5726 -0 0
lwrist 31.2243 0 0
lhand -24.3021 -2.80567 -0.0222148
lfingers 7.12502 -0 0
lthumb 2.18602 27.1636 -0.0190579
rclavicle 9.212e-14 8.28039e-15 1.19715e-30
rhumerus 6.10162 19.2121 -89.0043
rradius 134.989 -0 0
rwrist -45.2663 0 0
rhand -28.9735 -22.8266 -0.00840955
rfingers 7.12502 -0 0
rthumb -2.32512 -52.7994 -0.0121258
546
root 8.32205 13.9189 -3.47013 179.357 46.2484 177.189
lfemur -33.8243 -6.06243 -15.1838
ltibia 89.2534 -0 0
lfoot -39.4139 -13.1447 0.0317762
ltoes -3.71561 0 0
rfemur -49.0949 -7.87617 -3.14456
rtibia 65.5529 -0 0
rfoot -10.6019 0.318457 0.0144911
rtoes -39.0955 0 0
lowerback 13.0737 0.641519 1.73929
upperback 6.99594 2.0095 6.86834
thorax -0.163218 1.2936 5.97669
lowerneck -1.89303 -15.6844 -5.8393
upperneck 8.31198 -21.2969 8.78011
head 4.37187 -10.3148 2.36309
lclavicle 9.59862e-14 7.39751e-15 6.622e-31
lhumerus -45.9219 -11.6116 103.426
lradius 55.377 -0 0
lwrist 31.4584 0 0
lhand -24.4826 -2.69741 -0.00894037
lfingers 7.12502 -0 0
lthumb 2.01135 27.2712 -0.0081965
rclavicle 9.59862e-14 7.39751e-15 6.622e-31
rhumerus 5.98275 19.5453 -89.2698
rradius 134.82 -0 0
rwrist -44.9657 0 0
rhand -29.12 -22.8348 -0.00109791
rfingers 7.12502 -0 0
rthumb -2.46732 -52.8002 -0.0020701
547
root 8.3426 13.9245 -3.44966 -180.653 46.3973 -182.868
lfemur -33.6469 -5.88619 -15.0556
ltibia 88.9407 0 0
lfoot -39.5906 -13.3481 0
ltoes -3.60323 0 0
rfemur -49.0997 -8.13052 -2.84987
rtibia 65.5231 0 0
rfoot -10.7566 0.259778 0
rtoes -39.0929 0 0
lowerback 12.986 0.604552 1.66225
upperback 6.9725 1.94136 6.80527
thorax -0.131767 1.25582 5.96331
lowerneck -1.83125 -15.6388 -5.78109
upperneck 8.20244 -21.237 8.80926
head 4.32172 -10.2881 2.37983
lclavicle 9.85972e-14 6.36111e-15 0
lhumerus -46.01 -11.1851 103.032
lradius 55.2192 0 0
lwrist 31.5909 0 0
lhand -24.6475 -2.6444 0
lfingers 7.12502 0 0
lthumb 1.85197 27.3273 0
rclavicle 9.85972e-14 6.36111e-15 0
rhumerus 6.08594 19.7702 -89.381
rradius 134.72 0 0
rwrist -44.7914 0 0
rhand -29.263 -22.8451 0
rfingers 7.12502 0 0
rthumb -2.6057 -772.809 0
548
root 8.35382 13.9475 -3.43358 179.394 46.6687 177.097
lfemur -33.3851 -5.65159 -14.9875
ltibia 88.3886 -0 0
lfoot -39.7088 -13.379 -0.0227639
ltoes -3.54129 0 0
rfemur -49.0751 -8.31452 -2.53317
rtibia 65.151 -0 0
rfoot -10.6442 0.317084 0.0102622
rtoes -39.1099 0 0
lowerback 12.874 0.563726 1.57598
upperback 6.91969 1.86287 6.73458
thorax -0.116875 1.21121 5.948
lowerneck -1.79891 -15.5921 -5.72525
upperneck 8.12593 -21.1741 8.80248
head 4.28252 -10.2598 2.38326
lclavicle 1.00021e-13 5.07131e-15 -8.27478e-31
lhumerus -46.0905 -10.8262 102.688
lradius 55.0934 -0 0
lwrist 31.603 0 0
lhand -24.7818 -2.64606 0.00543517
lfingers 7.12502 -0 0
lthumb 1.72237 27.3302 0.00563083
rclavicle 1.00021e-13 5.07131e-15 -8.27478e-31
rhumerus 6.39516 19.92 -89.3314
rradius 134.66 -0 0
rwrist -44.6916 0 0
rhand -29.3801 -22.8519 -0.00211703
rfingers 7.12502 -0 0
rthumb -2.71876 -52.8175 -0.00213978
549
root 8.35669 13.9881 -3.42219 179.496 47.0723 177.08
lfemur -33.035 -5.36819 -14.9684
ltibia 87.5807 -0 0
lfoot -39.7769 -13.2743 -0.0394619
ltoes -3.51004 0 0
rfemur -49.0355 -8.43214 -2.17746
rtibia 64.4496 -0 0
rfoot -10.2845 0.484139 0.0428775
rtoes -39.1418 0 0
lowerback 12.7337 0.516721 1.47796
upperback 6.83505 1.77018 6.65103
thorax -0.118614 1.15774 5.92728
lowerneck -1.79423 -15.5386 -5.66605
upperneck 8.07218 -21.1003 8.75881
head 4.2498 -10.2264 2.37381
lclavicle 1.00466e-13 3.46195e-15 -1.83851e-30
lhumerus -46.1833 -10.5073 102.389
lradius 54.9897 -0 0
lwrist 31.4892 0 0
lhand -24.8714 -2.69441 0.00882007
lfingers 7.12502 -0 0
lthumb 1.63586 27.2854 0.00921466
rclavicle 1.00466e-13 3.46195e-15 -1.83851e-30
rhumerus 6.86567 20.0381 -89.1341
rradius 134.604 -0 0
rwrist -44.6008 0 0
rhand -29.449 -22.849 -0.00371671
rfingers 7.12502 -0 0
rthumb -2.78533 -52.816 -0.00376688
550
root 8.35177 14.0448 -3.41509 179.648 47.5978 177.079
lfemur -32.6053 -5.04049 -14.9931
ltibia 86.5407 -0 0
lfoot -39.7985 -13.0448 -0.0502816
ltoes -3.50596 0 0
rfemur -48.9817 -8.48997 -1.78627
rtibia 63.4535 -0 0
rfoot -9.70056 0.750728 0.093687
rtoes -39.1846 0 0
lowerback 12.5678 0.464096 1.3691
upperback 6.72159 1.66465 6.55586
thorax -0.135369 1.09628 5.90172
lowerneck -1.81495 -15.4789 -5.60392
upperneck 8.03963 -21.0166 8.6818
head 4.22322 -10.1883 2.35265
lclavicle 1.00016e-13 1.57217e-15 -2.97733e-30
lhumerus -46.2843 -10.2282 102.128
lradius 54.9061 -0 0
lwrist 31.2614 0 0
lhand -24.9198 -2.78459 0.0102845
lfingers 7.12502 -0 0
lthumb 1.58921 27.1978 0.010876
rclavicle 1.00016e-13 1.57217e-15 -2.97733e-30
rhumerus 7.4821 20.1245 -88.8022
rradius 134.552 -0 0
rwrist -44.5187 0 0
rhand -29.4737 -22.8368 -0.00481376
rfingers 7.12502 -0 0
rthumb -2.8092 -52.8053 -0.00489469
551
root 8.33963 14.1158 -3.41186 179.847 48.2352 177.097
lfemur -32.1049 -4.67294 -15.0562
ltibia 85.2923 -0 0
lfoot -39.7774 -12.7011 -0.0557112
ltoes -3.52554 0 0
rfemur -48.9147 -8.4946 -1.36306
rtibia 62.1977 -0 0
rfoot -8.91537 1.1068 0.157711
rtoes -39.2343 0 0
lowerback 12.3787 0.406412 1.25033
upperback 6.58231 1.54763 6.45033
thorax -0.165526 1.02771 5.87189
lowerneck -1.85881 -15.4137 -5.53927
upperneck 8.02672 -20.9242 8.57501
head 4.20244 -10.1461 2.32096
lclavicle 9.87523e-14 -5.58889e-16 -4.18006e-30
lhumerus -46.3896 -9.98859 101.902
lradius 54.8407 -0 0
lwrist 30.9318 0 0
lhand -24.9302 -2.91176 0.0100529
lfingers 7.12502 -0 0
lthumb 1.57922 27.0722 0.0108333
rclavicle 9.87523e-14 -5.58889e-16 -4.18006e-30
rhumerus 8.22883 20.1787 -88.349
rradius 134.504 -0 0
rwrist -44.4446 0 0
rhand -29.4581 -22.816 -0.00544414
rfingers 7.12502 -0 0
rthumb -2.79414 -52.7856 -0.00555764
552
root 8.32084 14.1995 -3.4121 -179.91 48.9741 177.133
lfemur -31.5424 -4.26984 -15.1525
ltibia 83.8593 -0 0
lfoot -39.7172 -12.254 -0.056459
ltoes -3.56528 0 0
rfemur -48.8355 -8.45265 -0.911287
rtibia 60.7168 -0 0
rfoot -7.95203 1.54225 0.229512
rtoes -39.2867 0 0
lowerback 12.169 0.344234 1.12256
upperback 6.42021 1.42046 6.33568
thorax -0.20747 0.952899 5.83837
lowerneck -1.92354 -15.3436 -5.47254
upperneck 8.03187 -20.8241 8.44197
head 4.18712 -10.1002 2.2799
lclavicle 9.67585e-14 -2.8921e-15 -5.37942e-30
lhumerus -46.4954 -9.7882 101.706
lradius 54.7918 -0 0
lwrist 30.5123 0 0
lhand -24.9059 -3.07107 0.00841521
lfingers 7.12502 -0 0
lthumb 1.6027 26.9136 0.00937027
rclavicle 9.67585e-14 -2.8921e-15 -5.37942e-30
rhumerus 9.08974 20.1998 -87.7884
rradius 134.46 -0 0
rwrist -44.3781 0 0
rhand -29.4062 -22.7869 -0.00566007
rfingers 7.12502 -0 0
rthumb -2.74396 -52.7577 -0.00580625
553
root 8.29595 14.2943 -3.41541 -179.626 49.8044 177.189
lfemur -30.9267 -3.83561 -15.2769
ltibia 82.2653 -0 0
lfoot -39.6214 -11.7141 -0.0533804
ltoes -3.62167 0 0
rfemur -48.745 -8.37068 -0.434338
rtibia 59.0456 -0 0
rfoot -6.83358 2.04692 0.303551
rtoes -39.3379 0 0
lowerback 11.9411 0.278132 0.986723
upperback 6.23829 1.28449 6.21317
thorax -0.259588 0.872728 5.80174
lowerneck -2.00689 -15.2692 -5.40415
upperneck 8.05351 -20.7172 8.28626
head 4.17692 -10.051 2.23063
lclavicle 9.4117e-14 -5.38832e-15 -6.50905e-30
lhumerus -46.5978 -9.62667 101.535
lradius 54.7574 -0 0
lwrist 30.0149 0 0
lhand -24.8503 -3.25768 0.00570287
lfingers 7.12502 -0 0
lthumb 1.65644 26.727 0.00681249
rclavicle 9.4117e-14 -5.38832e-15 -6.50905e-30
rhumerus 10.0486 20.1871 -87.1345
rradius 134.419 -0 0
rwrist -44.3187 0 0
rhand -29.3218 -22.7502 -0.00552532
rfingers 7.12502 -0 0
rthumb -2.66243 -52.7221 -0.00570257
554
root 8.26555 14.3986 -3.42138 -179.304 50.7157 177.266
lfemur -30.2664 -3.37461 -15.4244
ltibia 80.5341 -0 0
lfoot -39.4936 -11.0922 -0.0474142
ltoes -3.6912 0 0
rfemur -48.6443 -8.25529 0.0642677
rtibia 57.2191 -0 0
rfoot -5.58318 2.61048 0.374484
rtoes -39.3837 0 0
lowerback 11.6976 0.208689 0.843716
upperback 6.03954 1.14109 6.08401
thorax -0.32027 0.78807 5.76255
lowerneck -2.10659 -15.1911 -5.33452
upperneck 8.09011 -20.6047 8.11142
head 4.1715 -9.99911 2.17434
lclavicle 9.09104e-14 -8.00843e-15 -7.50711e-30
lhumerus -46.6933 -9.50366 101.386
lradius 54.7355 -0 0
lwrist 29.4517 0 0
lhand -24.7666 -3.46675 0.00226543
lfingers 7.12502 -0 0
lthumb 1.73723 26.5172 0.00350398
rclavicle 9.09104e-14 -8.00843e-15 -7.50711e-30
rhumerus 11.0888 20.14 -86.4015
rradius 134.381 -0 0
rwrist -44.2659 0 0
rhand -29.2089 -22.7064 -0.00511093
rfingers 7.12502 -0 0
rthumb -2.55336 -52.6793 -0.00531596
555
root 8.23018 14.5107 -3.42961 -178.946 51.6979 177.366
lfemur -29.57 -2.89132 -15.5903
ltibia 78.6894 -0 0
lfoot -39.3374 -10.3989 -0.0395217
ltoes -3.77036 0 0
rfemur -48.5345 -8.11303 0.581161
rtibia 55.2718 -0 0
rfoot -4.22408 3.22239 0.437426
rtoes -39.4201 0 0
lowerback 11.4409 0.136499 0.694443
upperback 5.82693 0.991634 5.94942
thorax -0.387907 0.699803 5.72138
lowerneck -2.22041 -15.1099 -5.26405
upperneck 8.1401 -20.4876 7.921
head 4.17052 -9.94491 2.11219
lclavicle 8.72216e-14 -1.07133e-14 -8.31943e-30
lhumerus -46.7783 -9.41886 101.254
lradius 54.7244 -0 0
lwrist 28.8346 0 0
lhand -24.6583 -3.69342 -0.00154906
lfingers 7.12502 -0 0
lthumb 1.84187 26.2893 -0.000211862
rclavicle 8.72216e-14 -1.07133e-14 -8.31943e-30
rhumerus 12.1939 20.0586 -85.6039
rradius 134.346 -0 0
rwrist -44.2191 0 0
rhand -29.0713 -22.6561 -0.00449124
rfingers 7.12502 -0 0
rthumb -2.42051 -52.6297 -0.00471921
556
root 8.19043 14.6291 -3.43969 -178.556 52.7406 177.49
lfemur -28.846 -2.39033 -15.7698
ltibia 76.7549 -0 0
lfoot -39.1564 -9.64483 -0.0306356
ltoes -3.85564 0 0
rfemur -48.4168 -7.95043 1.11294
rtibia 53.2387 -0 0
rfoot -2.77963 3.87187 0.488178
rtoes -39.4432 0 0
lowerback 11.1736 0.0621751 0.539793
upperback 5.60344 0.837528 5.81059
thorax -0.460891 0.608809 5.67879
lowerneck -2.34609 -15.0262 -5.19317
upperneck 8.20199 -20.3668 7.71853
head 4.17365 -9.8889 2.04535
lclavicle 8.31331e-14 -1.34637e-14 -8.90204e-30
lhumerus -46.8492 -9.37192 101.135
lradius 54.7222 -0 0
lwrist 28.1756 0 0
lhand -24.5285 -3.93286 -0.00541099
lfingers 7.12502 -0 0
lthumb 1.96716 26.0479 -0.00400904
rclavicle 8.31331e-14 -1.34637e-14 -8.90204e-30
rhumerus 13.347 19.9435 -84.7561
rradius 134.314 -0 0
rwrist -44.1779 0 0
rhand -28.9131 -22.5996 -0.00374034
rfingers 7.12502 -0 0
rthumb -2.2677 -52.5741 -0.00398508
